<svg xmlns="http://www.w3.org/2000/svg" version="1.0" width="64" height="64" viewBox="0 0 128 128" xml:space="preserve"><g><path d="M64 0a8 8 0 0 1 8 8c0 4.42-8 25.5-8 25.5S56 12.42 56 8a8 8 0 0 1 8-8z"/><path d="M96 8.574a8 8 0 0 1 2.928 10.929C96.718 23.33 79.25 37.586 79.25 37.586s3.612-22.256 5.822-26.083A8 8 0 0 1 96 8.574z" fill="#f8f8f8"/><path d="M119.426 32a8 8 0 0 1-2.929 10.928c-3.827 2.21-26.083 5.822-26.083 5.822s14.256-17.468 18.083-19.678A8 8 0 0 1 119.426 32z" fill="#e8e8e8"/><path d="M128 64a8 8 0 0 1-8 8c-4.42 0-25.5-8-25.5-8s21.08-8 25.5-8a8 8 0 0 1 8 8z" fill="#d4d4d4"/><path d="M119.426 96a8 8 0 0 1-10.929 2.928c-3.827-2.21-18.083-19.678-18.083-19.678s22.256 3.612 26.083 5.822A8 8 0 0 1 119.426 96z" fill="#bebebe"/><path d="M96 119.426a8 8 0 0 1-10.928-2.929c-2.21-3.827-5.822-26.083-5.822-26.083s17.468 14.256 19.678 18.083A8 8 0 0 1 96 119.426z" fill="#a6a6a6"/><path d="M64 128a8 8 0 0 1-8-8c0-4.42 8-25.5 8-25.5s8 21.08 8 25.5a8 8 0 0 1-8 8z" fill="#8e8e8e"/><path d="M32 119.426a8 8 0 0 1-2.928-10.929c2.21-3.827 19.678-18.083 19.678-18.083s-3.612 22.256-5.822 26.083A8 8 0 0 1 32 119.426z" fill="#737373"/><path d="M8.574 96a8 8 0 0 1 2.929-10.928c3.827-2.21 26.083-5.822 26.083-5.822S23.33 96.718 19.503 98.928A8 8 0 0 1 8.574 96z" fill="#5a5a5a"/><path d="M0 64a8 8 0 0 1 8-8c4.42 0 25.5 8 25.5 8S12.42 72 8 72a8 8 0 0 1-8-8z" fill="#414141"/><path d="M8.574 32a8 8 0 0 1 10.929-2.928c3.827 2.21 18.083 19.678 18.083 19.678s-22.256-3.612-26.083-5.822A8 8 0 0 1 8.574 32z" fill="#2a2a2a"/><path d="M32 8.574a8 8 0 0 1 10.928 2.929c2.21 3.827 5.822 26.083 5.822 26.083S31.282 23.33 29.072 19.503A8 8 0 0 1 32 8.574z" fill="#151515"/><animateTransform attributeName="transform" type="rotate" values="0 64 64;30 64 64;60 64 64;90 64 64;120 64 64;150 64 64;180 64 64;210 64 64;240 64 64;270 64 64;300 64 64;330 64 64" calcMode="discrete" dur="1080ms" repeatCount="indefinite"/></g></svg>